PERFORMER "Sander van Doorn"
TITLE "Essential Mix (2006-06-25)"
FILE "01-sander_van_doorn_-_essential_mix_(bbc_radio_1)-25-06-2006.mp3" MP3
  TRACK 01 AUDIO
    PERFORMER "Essential Mix"
    TITLE "Intro"
    INDEX 01 00:00:00
  TRACK 02 AUDIO
    PERFORMER "Let's Talk a.k.a. Marko Nastic"
    TITLE "Easter Happiness"
    INDEX 01 01:09:30
  TRACK 03 AUDIO
    PERFORMER "Steve Angello"
    TITLE "Teasing Mr Charlie"
    INDEX 01 02:51:23
  TRACK 04 AUDIO
    PERFORMER "Fred Pellichero"
    TITLE "The Snake (Marco V Edit)"
    INDEX 01 04:33:14
  TRACK 05 AUDIO
    PERFORMER "Chocolate Puma"
    TITLE "Always And Forever (Bart Claessen Dub Mix) (SvD Edit)"
    INDEX 01 08:22:24
  TRACK 06 AUDIO
    PERFORMER "Ferry Corsten"
    TITLE "Are You Ready"
    INDEX 01 10:22:28
  TRACK 07 AUDIO
    PERFORMER "Dada Life"
    TITLE "Big Time"
    INDEX 01 13:31:39
  TRACK 08 AUDIO
    PERFORMER "Sander Van Doorn"
    TITLE "Pumpkin (SvD Mix)"
    INDEX 01 17:50:72
  TRACK 09 AUDIO
    PERFORMER "2 Faced"
    TITLE "Rock Music (Don Diablo Remix)"
    INDEX 01 23:12:73
  TRACK 10 AUDIO
    PERFORMER "Cirez D"
    TITLE "Mouseville Theme"
    INDEX 01 25:30:57
  TRACK 11 AUDIO
    PERFORMER "Abel Ramos"
    TITLE "Electro Fun (Digital Poison Remix)"
    INDEX 01 29:42:74
  TRACK 12 AUDIO
    PERFORMER "Terry Ferminal"
    TITLE "Nymph"
    INDEX 01 33:32:00
  TRACK 13 AUDIO
    PERFORMER "Ronald van Gelderen"
    TITLE "This Way"
    INDEX 01 37:28:02
  TRACK 14 AUDIO
    PERFORMER "Hardcell & Grindvik"
    TITLE "Salt"
    INDEX 01 42:29:08
  TRACK 15 AUDIO
    PERFORMER "Randy Katana"
    TITLE "Plasticfantastic"
    INDEX 01 44:49:70
  TRACK 16 AUDIO
    PERFORMER "Mojado"
    TITLE "Rezo"
    INDEX 01 50:10:22
  TRACK 17 AUDIO
    PERFORMER "Fred Baker & Greg Nash"
    TITLE "Lunar Eclipse"
    INDEX 01 55:34:13
  TRACK 18 AUDIO
    PERFORMER "Sander van Doorn"
    TITLE "Dark Roast (2006 Re-fill)"
    INDEX 01 59:58:17
  TRACK 19 AUDIO
    PERFORMER "Cave"
    TITLE "Friday Night 2006"
    INDEX 01 65:50:25
  TRACK 20 AUDIO
    PERFORMER "DJ Preach"
    TITLE "Broken Inside"
    INDEX 01 67:42:70
  TRACK 21 AUDIO
    PERFORMER "Ferry Corsten"
    TITLE "Cubikated"
    INDEX 01 71:21:18
  TRACK 22 AUDIO
    PERFORMER "Re:Locate"
    TITLE "Rogue"
    INDEX 01 75:55:67
  TRACK 23 AUDIO
    PERFORMER "Divini & Warning"
    TITLE "4 LB"
    INDEX 01 79:27:04
  TRACK 24 AUDIO
    PERFORMER "4 Strings"
    TITLE "Take Me Away (Into The Night) (Purple Haze Remix)"
    INDEX 01 84:01:49
  TRACK 25 AUDIO
    PERFORMER "Marcel Woods"
    TITLE "Cherry Blossom (Trance Energy 2006 Mix)"
    INDEX 01 89:27:25
  TRACK 26 AUDIO
    PERFORMER "Leon Bolier pres. Precursor"
    TITLE "The Navigator"
    INDEX 01 96:17:33
  TRACK 27 AUDIO
    PERFORMER "Club Scene Investigators"
    TITLE "Direct Dizko (Sander van Doorn Remix)"
    INDEX 01 100:07:55
  TRACK 28 AUDIO
    PERFORMER "BK & Mark Sherry"
    TITLE "Amino"
    INDEX 01 105:40:26
  TRACK 29 AUDIO
    PERFORMER "Super8 + P.O.S. pres. Aalto"
    TITLE "5 (Maori's Dark Remix)"
    INDEX 01 108:26:51
  TRACK 30 AUDIO
    PERFORMER "Yello"
    TITLE "Oh Yeah 'Oh Six (Sander van Doorn Remix)"
    INDEX 01 113:10:59
  TRACK 31 AUDIO
    PERFORMER "Eric Sneo"
    TITLE "Ghostbuster"
    INDEX 01 117:34:08